<?xml version="1.0" standalone="no"?>
<!DOCTYPE svg PUBLIC "-//W3C//DTD SVG 20010904//EN"
 "http://www.w3.org/TR/2001/REC-SVG-20010904/DTD/svg10.dtd">
<svg version="1.0" xmlns="http://www.w3.org/2000/svg"
 width="520.000000pt" height="520.000000pt" viewBox="0 0 520.000000 520.000000"
 preserveAspectRatio="xMidYMid meet">
<metadata>
Created by potrace 1.11, written by Peter Selinger 2001-2013
</metadata>
<g transform="translate(0.000000,520.000000) scale(0.100000,-0.100000)"
fill="#000000" stroke="none">
<path d="M0 2600 l0 -2600 2600 0 2600 0 0 2600 0 2600 -2600 0 -2600 0 0
-2600z m1205 1274 c75 -20 189 -72 249 -113 24 -17 47 -31 50 -31 3 0 6 34 6
75 l0 76 138 -3 137 -3 3 -342 2 -343 -140 0 -140 0 0 73 c0 86 -16 115 -111
202 -109 99 -232 140 -404 133 -94 -4 -119 -9 -172 -33 -69 -30 -135 -94 -159
-152 -25 -58 -20 -156 11 -219 50 -103 109 -134 418 -219 445 -122 539 -167
659 -316 97 -121 141 -253 142 -424 0 -124 -17 -205 -64 -300 -81 -166 -260
-304 -455 -351 -107 -26 -288 -24 -390 5 -106 30 -210 80 -290 142 l-65 50 0
-91 0 -90 -145 0 -145 0 0 410 0 410 145 0 145 0 0 -101 0 -100 46 -72 c70
-108 156 -187 260 -239 l87 -43 131 0 c121 0 135 2 187 26 65 31 131 87 166
142 56 89 67 236 24 332 -47 105 -115 138 -545 265 -183 54 -301 99 -371 141
-112 68 -204 177 -246 294 -30 84 -38 283 -14 375 60 234 252 403 513 450 68
13 267 4 337 -16z m2615 -354 l0 -340 -140 0 -140 0 0 200 0 200 -425 0 -425
0 0 -335 0 -335 365 0 365 0 0 -145 0 -145 -365 0 -365 0 0 -370 0 -370 145 0
145 0 0 -140 0 -140 -460 0 -460 0 0 140 0 140 145 0 145 0 0 850 0 850 -145
0 -145 0 0 140 0 140 880 0 880 0 0 -340z m1020 200 l0 -140 -145 0 -145 0 0
-1094 c0 -1205 0 -1209 -60 -1333 -57 -115 -197 -213 -357 -249 -88 -19 -286
-15 -363 8 l-45 14 -3 158 -3 158 33 -6 c18 -4 92 -9 165 -13 121 -5 135 -4
176 16 53 26 71 50 94 128 16 53 18 153 21 1136 l3 1077 -146 0 -145 0 0 140
0 140 460 0 460 0 0 -140z"/>
</g>
</svg>
